PathFileType	4	(X/Y/Z)	D:/83_35.trc
DataRate	CameraRate	NumFrames	NumMarkers	Units	OrigDataRate	OrigDataStartFrame	OrigNumFrames
120.00	120.00	6	41	mm	120.00	754	1048
Frame#	Time	LFWT			RFWT			LBWT			RBWT			LTHI			LKNE			LSHN			LANK			LHEE			LMT5			LTOE			RTHI			RKNE			RSHN			RANK			RHEE			RMT5			RTOE			CLAV			STRN			C7			T10			RBAC			LFHD			RFHD			LBHD			RBHD			LSHO			LUPA			LELB			LFRM			LWRA			LWRB			LFIN			RSHO			RUPA			RELB			RFRM			RWRA			RWRB			RFIN
		X1	Y1	Z1	X2	Y2	Z2	X3	Y3	Z3	X4	Y4	Z4	X5	Y5	Z5	X6	Y6	Z6	X7	Y7	Z7	X8	Y8	Z8	X9	Y9	Z9	X10	Y10	Z10	X11	Y11	Z11	X12	Y12	Z12	X13	Y13	Z13	X14	Y14	Z14	X15	Y15	Z15	X16	Y16	Z16	X17	Y17	Z17	X18	Y18	Z18	X19	Y19	Z19	X20	Y20	Z20	X21	Y21	Z21	X22	Y22	Z22	X23	Y23	Z23	X24	Y24	Z24	X25	Y25	Z25	X26	Y26	Z26	X27	Y27	Z27	X28	Y28	Z28	X29	Y29	Z29	X30	Y30	Z30	X31	Y31	Z31	X32	Y32	Z32	X33	Y33	Z33	X34	Y34	Z34	X35	Y35	Z35	X36	Y36	Z36	X37	Y37	Z37	X38	Y38	Z38	X39	Y39	Z39	X40	Y40	Z40	X41	Y41	Z41

656	5.458	-363.38254	373.94357	1035.58411	-394.11713	634.87201	1056.47083	-207.22531	441.60104	1105.25134	-224.33701	580.74664	1112.99072	-307.23117	361.96976	737.52496	-314.81473	398.09207	586.17511	-226.54832	399.52948	359.80756	-166.62106	430.22256	242.31934	-111.43882	481.17548	233.79776	-254.29163	398.32715	199.86505	-302.47244	482.13434	219.33231	-455.62305	689.36096	911.39246	-638.57037	651.24414	783.71210	-623.46503	678.43738	667.90747	-596.03406	630.86450	393.98358	-542.13489	581.21051	345.76990	-696.39575	662.61597	369.63348	-732.83844	589.43036	392.09308	-428.22308	473.49524	1440.80676	-414.62354	483.26865	1264.57556	-322.17044	463.48947	1547.84314	-208.44652	481.49271	1348.91931	-230.60753	550.16492	1439.95215	-580.18805	407.93088	1622.38147	-549.15857	566.03882	1627.68896	-427.18759	409.78299	1653.55396	-408.31348	518.10205	1659.38574	-360.09741	324.15701	1520.04688	-287.12924	243.05569	1312.19495	-254.76778	236.84053	1217.22485	-266.51920	232.33638	1047.50903	-397.21396	271.61575	965.85651	-275.36935	193.51332	941.12616	-362.90231	227.00124	893.23370	-356.49203	618.26862	1525.15637	-296.60999	693.21906	1428.96948	-195.48364	705.62531	1259.61243	-169.48988	703.09839	1186.72705	-294.22968	766.90253	981.59277	-152.19853	788.54218	990.16754	-179.26732	785.56348	947.31873
657	5.467	-368.16913	374.41235	1034.96973	-398.66284	635.24506	1055.61621	-212.60143	442.01407	1104.99060	-229.18079	581.38934	1112.79626	-309.88501	362.16080	737.00360	-316.55396	398.25797	585.94397	-227.09761	399.60117	359.80322	-166.77034	430.46844	242.29478	-111.74876	481.23746	233.98874	-253.96904	398.40085	199.69954	-302.63297	482.03036	219.35669	-459.84604	689.99908	909.68152	-642.31140	651.89417	781.76392	-626.38232	678.46130	665.55035	-596.87341	629.61511	393.75781	-542.74622	579.41998	344.80103	-696.33655	662.38275	369.71527	-733.42908	589.48785	390.67206	-433.28012	475.11237	1440.76672	-419.33145	484.15005	1264.36011	-326.89664	465.03241	1547.65466	-213.26076	482.54910	1348.46057	-235.09224	551.48773	1439.50623	-585.12903	409.97012	1623.28564	-553.90710	567.75757	1627.78589	-432.39365	411.52139	1653.51501	-411.95053	519.83942	1659.07397	-364.54623	325.69003	1520.12585	-291.51260	244.45822	1312.61829	-258.86908	238.03029	1217.53186	-270.00381	233.18810	1047.64526	-400.19406	272.49240	965.55823	-278.30054	194.36765	941.42529	-365.59241	227.76559	893.04327	-361.19839	619.75159	1524.59106	-301.65335	694.63568	1428.21777	-199.72305	707.01129	1258.67896	-174.73917	703.99152	1185.49976	-300.57651	767.61951	980.83655	-158.03305	789.15894	988.60974	-185.99490	786.30774	945.92017
658	5.475	-372.87595	374.94330	1034.30334	-403.02222	635.69788	1054.96106	-217.65511	442.47281	1104.86194	-233.93025	581.92230	1112.75146	-312.54553	362.53967	736.76196	-317.90482	398.34470	585.61847	-227.71298	399.63101	360.02164	-166.80586	430.58987	242.37587	-112.13121	481.28854	234.31056	-253.91893	398.56067	199.40869	-302.88239	481.83130	219.25804	-464.20221	690.76135	908.21869	-646.21735	652.24097	780.59998	-629.55420	678.36493	664.18402	-597.49158	628.85278	394.13208	-543.05823	578.25525	344.36179	-696.31049	661.94977	370.24860	-733.62762	588.84167	390.31458	-438.84384	476.57425	1440.92285	-424.52515	485.09015	1264.32922	-332.02310	466.56497	1547.46423	-218.47446	483.70914	1348.11670	-239.96707	552.98511	1438.82178	-590.24445	412.44473	1623.86292	-557.76611	569.75208	1627.70764	-437.65991	413.27661	1653.59692	-416.64673	521.97961	1658.60840	-369.39999	327.38242	1520.10632	-296.19064	245.78981	1313.00549	-263.20203	239.19899	1217.98584	-273.45499	233.99170	1048.05396	-402.93530	273.43674	965.14868	-281.17599	195.16577	941.83777	-368.32886	228.50534	892.86536	-365.75089	621.21283	1524.05750	-307.02826	696.07526	1427.45715	-205.22183	708.41547	1257.48474	-180.67296	705.12994	1184.21240	-307.59045	768.29883	980.16583	-163.97643	790.02692	986.97290	-192.28477	787.02118	944.67493
659	5.483	-377.83035	375.45416	1033.62598	-406.98611	636.37958	1054.20972	-222.34673	442.99094	1105.06555	-238.44981	582.49060	1112.63428	-315.60046	363.09174	736.77264	-319.29047	398.59436	585.18097	-228.34866	399.74390	360.27634	-166.87128	430.48526	242.77115	-112.19728	481.23987	234.84666	-253.92661	398.67737	199.06528	-302.96716	481.75305	219.16284	-468.18427	691.35175	907.22400	-651.05890	652.16632	780.43231	-632.94055	678.27380	664.24402	-597.96002	629.00232	394.71191	-542.43530	578.47363	345.27435	-696.41553	661.61530	370.57693	-733.13007	588.24261	390.00882	-443.74066	477.76312	1440.71655	-429.87753	485.96115	1264.18494	-336.87985	468.04276	1547.13867	-223.70125	484.87723	1347.90112	-245.31882	554.43860	1438.45422	-595.01855	414.89822	1623.43677	-560.73425	571.42285	1627.11377	-442.88577	415.22256	1653.90186	-421.63669	523.96655	1658.56409	-374.48273	329.03073	1520.13794	-300.91183	247.04596	1313.31995	-267.94858	240.35254	1218.51782	-277.09085	234.95807	1048.68591	-405.66125	274.53397	964.58893	-283.99188	195.85326	942.35236	-371.12207	229.33311	892.69281	-370.77258	622.90002	1523.64795	-311.69266	697.44769	1426.59473	-211.00151	709.39728	1256.68201	-186.60922	706.28400	1183.00293	-314.81030	768.98993	979.82739	-170.30983	790.76202	985.58179	-198.61130	787.57471	943.34357
660	5.492	-382.59683	376.19733	1033.10510	-411.40649	637.26001	1053.49927	-226.91096	443.42209	1105.22534	-242.69107	582.75897	1112.46619	-318.70435	363.55450	736.75671	-320.79504	399.07727	584.83447	-228.83708	399.84253	360.52292	-167.28680	430.58145	243.14262	-112.22672	481.33203	235.70915	-253.84537	398.72452	198.98404	-303.03641	481.75900	219.15631	-472.10657	692.01166	907.26758	-655.49261	652.22919	780.65076	-636.12878	678.40381	665.15662	-598.60364	629.23523	395.14340	-541.74957	578.98767	346.99261	-696.67944	661.52704	370.32809	-733.07074	587.98407	389.57877	-448.43231	479.05878	1440.52710	-434.91284	486.79755	1263.96692	-342.40424	469.73151	1546.83691	-228.86836	485.71399	1347.84741	-250.42661	555.59576	1438.33740	-600.12494	415.76767	1624.22522	-567.76251	572.90137	1627.71106	-447.75549	417.23196	1654.16113	-426.63361	525.49310	1658.98975	-379.22232	330.50812	1520.23755	-305.91086	248.23738	1313.72046	-272.91248	241.51535	1219.02368	-280.72931	235.55692	1049.38049	-408.85199	275.53665	964.14526	-287.01508	196.63403	942.92596	-373.55423	230.10999	892.51178	-376.13138	624.63275	1523.43481	-316.25476	698.77289	1426.05188	-216.44771	710.48029	1255.91382	-192.24565	707.47870	1182.05969	-321.43228	769.70471	979.54675	-177.10045	791.61725	984.55267	-205.66565	788.25562	942.22211
661	5.500	-387.64703	377.03320	1032.86914	-416.25690	638.14154	1053.21741	-231.66991	443.67914	1105.25085	-246.95528	582.93054	1112.55249	-321.58374	363.88309	736.57214	-322.44980	399.51666	584.73077	-229.46313	400.00867	360.79562	-167.67767	430.69235	243.45796	-112.28115	481.51169	236.73810	-253.67007	398.76947	199.02563	-303.42993	481.70151	218.96219	-476.52148	692.58453	908.02765	-658.78485	652.58997	780.76569	-639.30371	678.61914	666.28510	-598.99127	629.31995	395.44418	-541.32617	579.44757	348.57330	-696.99774	661.70123	369.86285	-733.85474	587.99286	388.97351	-453.96591	480.47000	1440.71716	-440.20538	487.73074	1263.98633	-347.97980	471.45398	1546.83118	-234.08824	486.66815	1347.85510	-255.53810	557.00507	1438.05725	-604.85657	417.10498	1624.21814	-573.38464	574.72247	1627.81592	-452.12283	419.12411	1654.10754	-432.10004	527.49341	1658.94238	-384.52170	332.21109	1520.45984	-311.22794	249.49121	1314.24207	-277.90326	242.63399	1219.56177	-284.55240	236.09418	1050.01526	-412.37375	276.34644	963.64453	-290.28461	197.53653	943.57520	-376.09805	230.78951	892.50842	-381.05481	626.24347	1523.18579	-321.81952	700.11133	1425.66199	-222.15482	711.59418	1254.70435	-197.91345	708.64569	1181.39233	-328.02829	770.52374	979.07428	-184.17589	792.70709	983.47809	-212.80814	789.14081	941.32800
